<?xml version="1.0" encoding="UTF-8" standalone="no"?>
<!DOCTYPE svg PUBLIC "-//W3C//DTD SVG 1.1//EN" "http://www.w3.org/Graphics/SVG/1.1/DTD/svg11.dtd">
<svg width="100%" height="100%" viewBox="0 0 51200 51200" version="1.1" xmlns="http://www.w3.org/2000/svg" xmlns:xlink="http://www.w3.org/1999/xlink" xml:space="preserve" xmlns:serif="http://www.serif.com/" style="fill-rule:evenodd;clip-rule:evenodd;stroke-linejoin:round;stroke-miterlimit:2;">
    <g id="Gemini_Generated_Image_ucofj6ucofj6ucof--1-.png" serif:id="Gemini_Generated_Image_ucofj6ucofj6ucof (1).png" transform="matrix(77.717245,0,0,77.717245,-14211.75796,-12751.15624)">
        <path d="M588.5,858.277C586.661,858.293 586.672,858.226 565.506,858.298C548.705,858.355 427.806,858.767 355.499,858.316C267.1,857.763 264.005,860.826 240.378,851.818C202.789,837.488 185.006,803.347 181.939,775.457C181.112,767.934 181.843,273.893 181.529,255.498C181.285,241.206 188.304,220.179 193.326,212.392C202.604,198.006 214.829,182.371 238.617,172.791C258.983,164.59 262.36,165.729 295.504,165.66C421.529,165.394 421.468,165.872 547.494,165.729C626.667,165.639 626.616,165.531 633.495,165.606C671.256,166.014 671.225,165.538 674.506,165.603C756.621,167.235 758.21,160.42 790.354,174.769C827.383,191.299 842.099,229.873 842.291,254.498C842.756,314.534 842.429,418.26 842.384,432.5C842.324,451.605 842.415,541.73 842.403,542.5C842.206,555.053 842.771,766.83 842.1,774.475C839.873,799.847 825.553,820.313 820.618,825.616C801.221,846.46 781.658,857.977 749.505,858.26C744.675,858.302 590.643,858.303 588.5,858.277Z" style="fill:rgb(254,254,253);"/>
        <path d="M512.282,537.272C510.035,539.385 501.77,549.266 483.549,553.7C454.985,560.65 413.734,538.977 418.227,494.464C420.495,471.99 439.407,457.3 457.305,439.305C510.383,385.94 511.869,385.078 517.642,381.733C518.313,381.344 541.353,366.019 569.314,379.867C574.557,382.464 586.938,394.07 588.064,396.243C589.54,399.089 611.536,437.151 582.333,467.339C574.092,475.857 517.899,531.691 512.282,537.272Z" style="fill:rgb(212,78,127);"/>
        <path d="M639.065,379.717C648.626,397.095 661.958,434.979 636.768,477.66C626.246,495.488 624.695,494.358 555.357,564.359C537.709,582.176 525.259,593.153 498.475,601.416C486.05,605.249 482.93,603.703 481.723,603.105C472.211,598.391 446.49,578.746 446.455,578.513C446.033,575.716 448.019,578.63 460.464,579.88C505.181,582.932 522.486,560.511 550.23,533.207C554.463,529.041 580.333,503.581 602.554,480.552C627.134,455.077 631.324,420.59 617.916,392.298C615.628,387.47 584.519,356.886 578.488,354.532C574.239,352.873 549.463,343.199 521.479,353.448C496.225,362.697 491.384,371.971 448.003,415.006C412.843,449.887 393.472,465.467 391.8,502.507C388.888,567.007 479.078,617.177 508.526,628.43C510.473,629.175 510.854,630.295 520.624,625.787C612.021,583.615 639.779,518.55 651.321,479.447C655.713,464.568 675.305,466.535 676.188,481.517C676.722,490.568 666.811,514.217 661.154,526.343C634.443,583.598 582.302,624.617 543.376,643.249C511.457,658.527 510.233,656.46 502.512,653.471C464.878,638.903 436.477,616.798 431.299,612.768C412.933,598.103 412.54,596.92 400.678,584.331C349.375,529.887 360.752,466.815 398.397,428.397C404.058,422.62 437.948,388.035 469.807,356.831C522.102,305.611 579.103,327.203 600.193,340.701" style="fill:rgb(214,79,129);"/>
        <path d="M355.39,500.495C355.715,507.896 355.9,508.014 355.417,508.425C354.176,509.478 353.377,506.822 353.313,506.609C352.365,503.452 330.558,453.618 335.399,384.492C335.648,380.942 337.966,347.835 342.653,340.592C350.475,328.506 355.294,338.472 406.482,328.409C466.892,316.532 502.662,282.992 504.722,281.931C515.104,276.585 518.557,284.191 537.176,295.99C539.513,297.472 558.705,309.635 567.632,312.387C568.902,312.779 569.41,315.008 566.495,314.272C545.595,308.994 522.817,316.247 520.482,315.556C515.707,314.143 513.523,307.319 508.367,311.296C465.742,344.174 414.352,353.239 405.557,354.791C368.692,361.294 364.594,355.63 363.494,362.499C359.708,386.125 358.251,421.355 365.173,454.568C366.805,462.399 357.641,462.15 355.39,500.495Z" style="fill:rgb(216,87,134);"/>
        <path d="M518.546,457.454C517.107,456.108 517.113,456.12 516.992,456C499.033,438.176 498.728,438.36 497.842,436.352C497.223,434.947 498.18,435.025 522.526,410.527C545.655,387.253 569.16,405.834 572.73,421.443C577.003,440.128 562.523,451.286 555.327,458.317C538.306,474.946 538.392,476.301 536.592,475.329C536.503,475.28 518.788,457.714 518.546,457.454Z" style="fill:rgb(253,253,252);"/>
        <path d="M444.087,507.596C440.208,486.971 451.39,481.731 476.651,455.652C478.748,453.487 479.274,454.455 481.42,456.583C486.221,461.343 498.444,473.608 499.922,475.091C505.17,480.357 505.207,480.247 510.533,485.463C518.461,493.228 519.832,494.037 517.467,496.469C514.617,499.4 496.212,517.532 494.359,519.358C474.702,538.725 449.971,529.034 444.087,507.596Z" style="fill:rgb(236,149,184);"/>
        <path d="M756.459,748.675C754.491,748.003 751.753,747.537 746.651,743.327C742.606,739.99 742.49,740.216 737.574,738.309C716.401,730.093 719.293,699.59 742.542,695.747C770.914,691.057 781.576,726.433 758.388,737.299C753.048,739.802 760.269,743.509 766.269,740.084C770.871,737.458 773.576,743.214 771.442,745.442C766.562,750.535 757.665,748.897 756.459,748.675Z" style="fill:rgb(214,79,129);"/>
        <path d="M344.288,716.504C344.273,716.809 345.104,724.851 339.133,732.199C326.948,747.197 292.452,739.551 296.978,713.579C300.991,690.551 340.706,686.553 344.288,716.504Z"/>
        <path d="M451.206,736.499C450.813,740.318 449.298,739.242 445.502,739.186C442.133,739.136 440.748,739.859 440.725,736.496C440.703,733.383 440.461,698.609 440.842,697.583C441.46,695.916 443.3,696.082 443.485,696.079C460.87,695.834 477.613,694.507 478.862,710.466C479.702,721.209 470.449,723.515 471.419,726.532C472.016,728.386 481.76,739.203 477.47,739.316C470.741,739.492 469.572,740.864 465.821,735.289C461.324,728.604 461.824,727.113 456.503,727.085C456.117,727.083 452.319,727.064 451.719,727.688C450.886,728.554 451.2,734.426 451.206,736.499Z"/>
        <path d="M621.802,726.495C621.821,697.327 621.691,697.159 622.479,696.476C623.831,695.302 640.916,696.077 642.518,696.15C656.354,696.777 660.872,705.794 659.75,714.533C657.824,729.523 635.237,727.358 634.488,727.384C630.903,727.508 632.231,733.18 632.141,736.485C632.035,740.355 626.468,739.234 624.512,739.196C621.032,739.128 621.842,735.705 621.802,726.495Z"/>
        <path d="M351.379,712.501C351.371,698.784 351.099,696.98 352.467,696.439C352.536,696.412 359.045,695.046 361.376,697.622C379.399,717.536 377.935,718.736 379.682,720.278C382.644,722.891 381.219,718.724 381.56,698.502C381.633,694.202 390.891,696.494 391.173,696.798C392.204,697.913 392.038,737.77 391.433,738.448C390.716,739.25 386.903,739.234 386.504,739.232C382.413,739.214 382.456,738.313 369.861,723.22C362.944,714.932 362.95,713.839 361.804,714.772C361.045,715.388 362.548,737.065 361.369,738.395C360.134,739.789 352.863,739.101 352.687,739.012C351.264,738.292 351.513,737.802 351.379,712.501Z"/>
        <path d="M512.254,698.625C513.54,701.387 523.37,722.504 527.961,733.319C528.584,734.786 531.388,739.143 528.465,739.223C521.826,739.405 520.271,740.566 517.738,734.407C515.364,728.636 513.745,730.186 507.496,730.182C497.474,730.174 495.88,729.173 493.918,733.687C493.186,735.371 492.43,739.081 489.489,739.208C482.67,739.503 482.546,739.187 482.338,738.652C481.922,737.589 481.652,737.297 495.228,707.378C500.004,696.852 500.165,696.101 503.492,696.094C509.061,696.082 510.583,695.548 512.254,698.625Z"/>
        <path d="M579.962,699.498C580.501,697.103 579.971,696.608 581.397,696.193C582.175,695.966 610.158,696.095 611.565,696.207C613.951,696.397 613.816,702.308 613.308,703.418C612.367,705.473 599.586,704.19 592.496,704.464C589.153,704.593 590.442,711.915 590.756,712.342C591.939,713.95 602.136,713.006 608.527,713.215C611.714,713.32 610.8,718.465 610.8,718.515C610.759,722.338 607.265,721.07 593.488,721.24C590.684,721.275 589.9,722.077 590.44,728.507C590.704,731.65 595.734,730.65 611.496,730.736C614.469,730.752 614.508,733.456 614.276,737.466C614.136,739.891 607.454,739.2 604.496,739.196C580.909,739.17 580.862,738.791 580.568,738.445C580.339,738.176 580.19,738.131 579.962,699.498Z"/>
        <path d="M266.487,738.539C265.027,737.931 254.962,733.739 252.602,724.467C246.22,699.393 273.23,689.252 288.785,699.006C295.384,703.144 291.543,704.846 289.162,707.12C285.615,710.508 285.295,706.296 279.428,704.799C259.925,699.823 254.682,729.832 275.485,730.899C284.327,731.353 285.246,723.792 289.371,727.639C293.49,731.479 293.219,732.377 291.298,734.308C282.582,743.064 268.425,739.084 266.487,738.539Z"/>
        <path d="M531.819,716.515C532.247,712.83 532.117,712.827 532.56,711.52C540.985,686.642 571.176,696.67 572.741,702.408C572.894,702.97 573.212,704.134 568.264,708.154C566.473,709.609 564.008,705.426 559.464,704.684C538.6,701.274 537.716,727.96 552.46,730.722C560.796,732.283 564.717,727.751 565.851,726.991C568.279,725.365 573.58,730.949 572.968,732.653C569.988,740.942 532.604,748.258 531.819,716.515Z"/>
        <path d="M675.761,734.498C675.791,706.459 675.797,706.53 675.784,706.451C675.281,703.253 666.045,705.193 663.478,704.622C661.377,704.156 659.924,696.213 664.49,696.095C667.133,696.027 681.596,695.652 697.536,696.096C700.598,696.181 700.147,699.815 699.93,702.566C699.583,706.962 688.077,703.085 686.591,705.555C685.883,706.732 686.41,736.783 686.213,737.455C686.014,738.131 685.456,740.028 677.56,739.12C677.367,739.098 676.032,738.944 675.799,737.444C675.648,736.473 675.911,735.468 675.761,734.498Z"/>
        <path d="M404.503,704.714C403.951,704.71 397.505,705.684 397.377,702.508C397.199,698.06 395.99,696.038 400.484,696.046C430.956,696.101 430.981,695.623 433.574,696.158C435.814,696.621 436.938,704.641 432.498,704.68C427.176,704.726 421.507,703.861 421.388,706.486C421.087,713.171 422.055,737.496 420.72,738.772C420.173,739.295 411.57,740.161 411.12,737.607C410.518,734.197 412.007,706.068 410.229,704.984C409.348,704.447 409.276,704.733 404.503,704.714Z"/>
        <path d="M333.306,713.553C337.713,738.575 302.488,734.723 307.677,713.552C310.191,703.294 327.516,698.711 333.306,713.553Z" style="fill:rgb(251,251,252);"/>
        <path d="M743.561,704.785C746.097,704.481 757.508,702.245 760.135,715.562C761.359,721.766 757.437,728.773 750.516,730.562C734.875,734.604 725.277,711.34 743.561,704.785Z" style="fill:rgb(252,250,251);"/>
        <path d="M705.457,716.501C705.412,698.947 705.2,698.992 705.545,697.513C706.073,695.247 715.102,695.427 715.727,697.415C716.097,698.59 715.945,737.272 715.866,737.6C715.707,738.258 715.318,739.867 707.545,739.13C705.139,738.902 705.561,737.719 705.457,716.501Z" style="fill:rgb(212,78,127);"/>
        <path d="M637.499,704.595C639.496,704.656 647.837,703.528 649.263,710.537C650.881,718.494 640.518,718.665 639.501,718.681C637.877,718.708 632.254,719.524 632.127,716.549C632.093,715.739 631.783,708.462 632.112,706.417C632.522,703.871 636.682,704.615 637.499,704.595Z" style="fill:rgb(251,248,251);"/>
        <path d="M451.175,710.493C451.416,705.716 451.056,705.512 451.866,704.923C452.363,704.562 453.369,704.545 453.504,704.543C458.042,704.467 467.546,703.708 468.159,710.544C469.01,720.026 456.714,718.663 453.494,718.567C450.227,718.47 451.193,713.022 451.175,710.493Z" style="fill:rgb(251,247,249);"/>
        <path d="M509.519,715.492C511.263,719.122 512.878,722.195 510.463,722.312C500.074,722.815 499.906,722.281 499.645,721.453C499.221,720.111 501.076,717.995 504.427,708.454C505.522,705.336 507.104,709.417 507.191,709.642C508.922,714.105 508.875,714.104 509.519,715.492Z" style="fill:rgb(249,241,247);"/>
    </g>
</svg>
